<svg xmlns="http://www.w3.org/2000/svg" xmlns:xlink="http://www.w3.org/1999/xlink" xmlns:lucid="lucid" width="1260" height="580"><g transform="translate(-180 -80)" lucid:page-tab-id="0_0"><path d="M0 0h1870.87v1322.83H0z" fill="#fff"/><path d="M204.5 636.02c-2.5 2.2-1.8 3.98 1.5 3.98h1208c3.3 0 4-1.78 1.5-3.98l-601-532.04c-2.5-2.2-6.5-2.2-9 0z" stroke="#5e5e5e" stroke-width="3" fill="#b2d6ef"/><path d="M357 501.02c-2.5 2.2-1.8 3.98 1.5 3.98h903c3.3 0 4-1.78 1.5-3.98L814.5 103.98c-2.5-2.2-6.5-2.2-9 0z" stroke="#5e5e5e" stroke-width="3" fill="#c1e4f7"/><path d="M509.5 366.02c-2.5 2.2-1.8 3.98 1.5 3.98h598c3.3 0 4-1.78 1.5-3.98l-296-262.04c-2.5-2.2-6.5-2.2-9 0z" stroke="#5e5e5e" stroke-width="3" fill="#99d5ca"/><path d="M662 231.02c-2.5 2.2-1.8 3.98 1.5 3.98h293c3.3 0 4-1.78 1.5-3.98L814.5 103.98c-2.5-2.2-6.5-2.2-9 0z" stroke="#5e5e5e" stroke-width="3" fill="#c7e8ac"/><path d="M505 524.5c0-3.3 2.7-6 6-6h598c3.3 0 6 2.7 6 6v96c0 3.3-2.7 6-6 6H511c-3.3 0-6-2.7-6-6z" stroke="#000" stroke-opacity="0" stroke-width="3" fill="#fff" fill-opacity="0"/><use xlink:href="#a" transform="matrix(1,0,0,1,510,523.5) translate(243.77777777777797 97.66897066666654)"/><path d="M505 389.5c0-3.3 2.7-6 6-6h598c3.3 0 6 2.7 6 6v96c0 3.3-2.7 6-6 6H511c-3.3 0-6-2.7-6-6z" stroke="#000" stroke-opacity="0" stroke-width="3" fill="#fff" fill-opacity="0"/><use xlink:href="#b" transform="matrix(1,0,0,1,510,388.5) translate(166.8888888888893 97.66897066666654)"/><path d="M505 254.5c0-3.3 2.7-6 6-6h598c3.3 0 6 2.7 6 6v96c0 3.3-2.7 6-6 6H511c-3.3 0-6-2.7-6-6z" stroke="#000" stroke-opacity="0" stroke-width="3" fill="#fff" fill-opacity="0"/><use xlink:href="#c" transform="matrix(1,0,0,1,510,253.5) translate(168.2962962962967 97.66897066666654)"/><path d="M505 133c0-3.3 2.7-6 6-6h598c3.3 0 6 2.7 6 6v82.5c0 3.3-2.7 6-6 6H511c-3.3 0-6-2.7-6-6z" stroke="#000" stroke-opacity="0" stroke-width="3" fill="#fff" fill-opacity="0"/><use xlink:href="#d" transform="matrix(1,0,0,1,510.00000000000006,132) translate(215.9351851851855 83.05653333333319)"/><defs><path fill="#333" d="M30-248c118-7 216 8 213 122C240-48 200 0 122 0H30v-248zM63-27c89 8 146-16 146-99s-60-101-146-95v194" id="e"/><path fill="#333" d="M141-36C126-15 110 5 73 4 37 3 15-17 15-53c-1-64 63-63 125-63 3-35-9-54-41-54-24 1-41 7-42 31l-33-3c5-37 33-52 76-52 45 0 72 20 72 64v82c-1 20 7 32 28 27v20c-31 9-61-2-59-35zM48-53c0 20 12 33 32 33 41-3 63-29 60-74-43 2-92-5-92 41" id="f"/><path fill="#333" d="M59-47c-2 24 18 29 38 22v24C64 9 27 4 27-40v-127H5v-23h24l9-43h21v43h35v23H59v120" id="g"/><g id="a"><use transform="matrix(0.14814814814814767,0,0,0.14814814814814767,0,0)" xlink:href="#e"/><use transform="matrix(0.14814814814814767,0,0,0.14814814814814767,38.370370370370246,0)" xlink:href="#f"/><use transform="matrix(0.14814814814814767,0,0,0.14814814814814767,67.99999999999977,0)" xlink:href="#g"/><use transform="matrix(0.14814814814814767,0,0,0.14814814814814767,82.81481481481454,0)" xlink:href="#f"/></g><path fill="#333" d="M33 0v-248h34V0H33" id="h"/><path fill="#333" d="M117-194c89-4 53 116 60 194h-32v-121c0-31-8-49-39-48C34-167 62-67 57 0H25l-1-190h30c1 10-1 24 2 32 11-22 29-35 61-36" id="i"/><path fill="#333" d="M101-234c-31-9-42 10-38 44h38v23H63V0H32v-167H5v-23h27c-7-52 17-82 69-68v24" id="j"/><path fill="#333" d="M100-194c62-1 85 37 85 99 1 63-27 99-86 99S16-35 15-95c0-66 28-99 85-99zM99-20c44 1 53-31 53-75 0-43-8-75-51-75s-53 32-53 75 10 74 51 75" id="k"/><path fill="#333" d="M114-163C36-179 61-72 57 0H25l-1-190h30c1 12-1 29 2 39 6-27 23-49 58-41v29" id="l"/><path fill="#333" d="M210-169c-67 3-38 105-44 169h-31v-121c0-29-5-50-35-48C34-165 62-65 56 0H25l-1-190h30c1 10-1 24 2 32 10-44 99-50 107 0 11-21 27-35 58-36 85-2 47 119 55 194h-31v-121c0-29-5-49-35-48" id="m"/><path fill="#333" d="M24-231v-30h32v30H24zM24 0v-190h32V0H24" id="n"/><g id="b"><use transform="matrix(0.14814814814814767,0,0,0.14814814814814767,0,0)" xlink:href="#h"/><use transform="matrix(0.14814814814814767,0,0,0.14814814814814767,14.814814814814767,0)" xlink:href="#i"/><use transform="matrix(0.14814814814814767,0,0,0.14814814814814767,44.4444444444443,0)" xlink:href="#j"/><use transform="matrix(0.14814814814814767,0,0,0.14814814814814767,59.25925925925907,0)" xlink:href="#k"/><use transform="matrix(0.14814814814814767,0,0,0.14814814814814767,88.8888888888886,0)" xlink:href="#l"/><use transform="matrix(0.14814814814814767,0,0,0.14814814814814767,106.51851851851818,0)" xlink:href="#m"/><use transform="matrix(0.14814814814814767,0,0,0.14814814814814767,150.81481481481433,0)" xlink:href="#f"/><use transform="matrix(0.14814814814814767,0,0,0.14814814814814767,180.44444444444386,0)" xlink:href="#g"/><use transform="matrix(0.14814814814814767,0,0,0.14814814814814767,195.2592592592586,0)" xlink:href="#n"/><use transform="matrix(0.14814814814814767,0,0,0.14814814814814767,206.96296296296228,0)" xlink:href="#k"/><use transform="matrix(0.14814814814814767,0,0,0.14814814814814767,236.5925925925918,0)" xlink:href="#i"/></g><path fill="#333" d="M194 0L95-120 63-95V0H30v-248h33v124l119-124h40L117-140 236 0h-42" id="o"/><path fill="#333" d="M206 0h-36l-40-164L89 0H53L-1-190h32L70-26l43-164h34l41 164 42-164h31" id="p"/><path fill="#333" d="M24 0v-261h32V0H24" id="q"/><path fill="#333" d="M100-194c63 0 86 42 84 106H49c0 40 14 67 53 68 26 1 43-12 49-29l28 8c-11 28-37 45-77 45C44 4 14-33 15-96c1-61 26-98 85-98zm52 81c6-60-76-77-97-28-3 7-6 17-6 28h103" id="r"/><path fill="#333" d="M85-194c31 0 48 13 60 33l-1-100h32l1 261h-30c-2-10 0-23-3-31C134-8 116 4 85 4 32 4 16-35 15-94c0-66 23-100 70-100zm9 24c-40 0-46 34-46 75 0 40 6 74 45 74 42 0 51-32 51-76 0-42-9-74-50-73" id="s"/><path fill="#333" d="M177-190C167-65 218 103 67 71c-23-6-38-20-44-43l32-5c15 47 100 32 89-28v-30C133-14 115 1 83 1 29 1 15-40 15-95c0-56 16-97 71-98 29-1 48 16 59 35 1-10 0-23 2-32h30zM94-22c36 0 50-32 50-73 0-42-14-75-50-75-39 0-46 34-46 75s6 73 46 73" id="t"/><g id="c"><use transform="matrix(0.14814814814814767,0,0,0.14814814814814767,0,0)" xlink:href="#o"/><use transform="matrix(0.14814814814814767,0,0,0.14814814814814767,35.55555555555544,0)" xlink:href="#i"/><use transform="matrix(0.14814814814814767,0,0,0.14814814814814767,65.18518518518498,0)" xlink:href="#k"/><use transform="matrix(0.14814814814814767,0,0,0.14814814814814767,94.81481481481451,0)" xlink:href="#p"/><use transform="matrix(0.14814814814814767,0,0,0.14814814814814767,133.18518518518476,0)" xlink:href="#q"/><use transform="matrix(0.14814814814814767,0,0,0.14814814814814767,144.88888888888843,0)" xlink:href="#r"/><use transform="matrix(0.14814814814814767,0,0,0.14814814814814767,174.51851851851796,0)" xlink:href="#s"/><use transform="matrix(0.14814814814814767,0,0,0.14814814814814767,204.1481481481475,0)" xlink:href="#t"/><use transform="matrix(0.14814814814814767,0,0,0.14814814814814767,233.77777777777703,0)" xlink:href="#r"/></g><path fill="#333" d="M266 0h-40l-56-210L115 0H75L2-248h35L96-30l15-64 43-154h32l59 218 59-218h35" id="u"/><path fill="#333" d="M135-143c-3-34-86-38-87 0 15 53 115 12 119 90S17 21 10-45l28-5c4 36 97 45 98 0-10-56-113-15-118-90-4-57 82-63 122-42 12 7 21 19 24 35" id="v"/><g id="d"><use transform="matrix(0.12962962962962912,0,0,0.12962962962962912,0,0)" xlink:href="#u"/><use transform="matrix(0.12962962962962912,0,0,0.12962962962962912,43.94444444444427,0)" xlink:href="#n"/><use transform="matrix(0.12962962962962912,0,0,0.12962962962962912,54.18518518518498,0)" xlink:href="#v"/><use transform="matrix(0.12962962962962912,0,0,0.12962962962962912,77.51851851851822,0)" xlink:href="#s"/><use transform="matrix(0.12962962962962912,0,0,0.12962962962962912,103.44444444444404,0)" xlink:href="#k"/><use transform="matrix(0.12962962962962912,0,0,0.12962962962962912,129.37037037036987,0)" xlink:href="#m"/></g></defs></g></svg>